<svg xmlns="http://www.w3.org/2000/svg" width="489" height="576" viewBox="0 0 489 576"><rect width="100%" height="100%" fill="#DDDDDD"/><path fill="#999999" d="M106.535 293.79h14.3v-15.38q0-2.17.3-4.81l-14.6 20.19Zm21.29 0h5.92v4.64q0 .65-.43 1.13-.42.47-1.2.47h-4.29v11.47h-6.99v-11.47h-19.82q-.81 0-1.43-.51-.62-.5-.78-1.25l-.85-4.06 22.27-29.74h7.6v29.32Zm26.43 11.96q1.98 0 3.47-.57 1.5-.57 2.52-1.58 1.03-1.01 1.54-2.4.52-1.4.52-3.03 0-3.86-2.14-5.85-2.14-1.98-5.91-1.98-3.78 0-5.92 1.98-2.14 1.99-2.14 5.85 0 1.63.52 3.03.51 1.39 1.54 2.4 1.02 1.01 2.52 1.58 1.49.57 3.48.57Zm0-35.72q-1.79 0-3.09.55-1.3.55-2.16 1.48-.87.93-1.27 2.13-.41 1.2-.41 2.54 0 1.39.34 2.71.34 1.31 1.16 2.34.81 1.02 2.14 1.64 1.34.62 3.29.62 1.94 0 3.28-.62 1.33-.62 2.14-1.64.82-1.03 1.16-2.34.34-1.32.34-2.71 0-1.34-.42-2.54-.43-1.2-1.27-2.13-.85-.93-2.15-1.48-1.3-.55-3.08-.55Zm7.92 16.96q4.3 1.4 6.34 4.28 2.05 2.87 2.05 7.03 0 3.12-1.19 5.66-1.18 2.54-3.33 4.32-2.14 1.79-5.15 2.76-3.01.98-6.64.98-3.65 0-6.65-.98-3.01-.97-5.15-2.76-2.15-1.78-3.33-4.32-1.19-2.54-1.19-5.66 0-4.16 2.05-7.03 2.04-2.88 6.33-4.28-3.41-1.43-5.11-4.06-1.71-2.63-1.71-6.34 0-2.66 1.09-4.97 1.09-2.31 3.04-4.01 1.95-1.71 4.66-2.67 2.72-.96 5.97-.96 3.25 0 5.96.96t4.66 2.67q1.95 1.7 3.04 4.01 1.09 2.31 1.09 4.97 0 3.71-1.71 6.34-1.7 2.63-5.12 4.06Zm21.65-8.38q0 3.93 2.03 6 2.03 2.06 5.77 2.06 1.95 0 3.48-.62t2.57-1.69q1.04-1.07 1.57-2.53.54-1.47.54-3.16 0-1.91-.59-3.42-.58-1.52-1.66-2.55-1.07-1.04-2.55-1.6-1.48-.55-3.23-.55-1.82 0-3.28.6-1.47.6-2.5 1.67-1.05 1.08-1.6 2.56-.55 1.47-.55 3.23Zm-3.93 32.89 14.59-18.23q.55-.68 1.04-1.34.49-.64.94-1.3-1.62 1.05-3.57 1.58-1.95.54-4.1.54-2.44 0-4.77-.85-2.35-.84-4.16-2.55-1.83-1.71-2.95-4.22-1.12-2.52-1.12-5.9 0-3.16 1.17-5.92t3.29-4.84q2.11-2.08 5.06-3.28 2.96-1.21 6.54-1.21 3.61 0 6.48 1.14 2.88 1.14 4.91 3.19 2.03 2.04 3.12 4.9 1.09 2.86 1.09 6.28 0 2.17-.38 4.12-.37 1.95-1.05 3.76-.68 1.8-1.66 3.52-.97 1.73-2.18 3.42l-10.76 15.34q-.55.78-1.65 1.31-1.11.54-2.5.54h-7.38Zm80.89-10.76-4.26 4.19-11.01-11.01-11.12 11.08-4.26-4.19 11.12-11.15-10.6-10.6 4.23-4.22 10.59 10.59 10.53-10.52 4.29 4.22-10.56 10.56 11.05 11.05Zm34.16-28.96-1.66 9.79q1.56-.33 2.99-.47 1.43-.15 2.76-.15 3.71 0 6.54 1.1 2.82 1.11 4.74 3.06 1.92 1.95 2.89 4.57.98 2.61.98 5.63 0 3.74-1.32 6.83-1.31 3.09-3.65 5.28-2.34 2.19-5.55 3.4-3.2 1.2-6.97 1.2-2.21 0-4.19-.45-1.98-.46-3.72-1.22-1.74-.77-3.22-1.76-1.48-.99-2.65-2.09l2.47-3.42q.78-1.1 2.05-1.1.81 0 1.66.52.84.52 1.93 1.13 1.09.62 2.57 1.14 1.48.52 3.56.52 2.21 0 3.9-.71 1.69-.72 2.81-2 1.12-1.29 1.69-3.06.57-1.77.57-3.85 0-3.83-2.23-5.99-2.22-2.16-6.58-2.16-3.35 0-6.86 1.23l-5-1.43 3.9-22.82h23.2v3.42q0 1.72-1.07 2.79t-3.64 1.07h-12.9Zm25.87-7.28h32.47v3.48q0 1.56-.33 2.52-.32.96-.65 1.61l-17.81 36.66q-.55 1.14-1.56 1.93-1.01.8-2.7.8h-5.81l18.16-35.91q.62-1.11 1.22-2.03.6-.93 1.35-1.78h-22.49q-.75 0-1.3-.55t-.55-1.3v-5.43Zm65.58 0-13.94 17.07-1.62 2.01q1.36-.68 2.94-1.05 1.57-.38 3.39-.38 2.67 0 5.19.88 2.52.88 4.43 2.65 1.92 1.77 3.09 4.4 1.17 2.63 1.17 6.14 0 3.29-1.2 6.16-1.2 2.88-3.38 5.03-2.18 2.14-5.25 3.37-3.07 1.24-6.78 1.24-3.77 0-6.76-1.2-2.99-1.21-5.1-3.37-2.11-2.16-3.23-5.2t-1.12-6.74q0-3.31 1.34-6.81 1.35-3.49 4.18-7.26l11.21-15.05q.59-.78 1.71-1.33 1.12-.56 2.58-.56h7.15Zm-12.12 40.96q1.92 0 3.53-.66 1.61-.65 2.76-1.82 1.15-1.17 1.8-2.74.65-1.58.65-3.43 0-2.02-.61-3.62-.62-1.61-1.76-2.73-1.14-1.12-2.73-1.71-1.59-.59-3.51-.59-1.92 0-3.48.65t-2.66 1.81q-1.11 1.15-1.72 2.73-.62 1.58-.62 3.39 0 1.96.53 3.56.54 1.61 1.6 2.75 1.05 1.14 2.61 1.77 1.56.64 3.61.64Z"/></svg>