<svg xmlns="http://www.w3.org/2000/svg" width="72" height="72" viewBox="0 0 72 72"><rect width="100%" height="100%" fill="#DDDDDD"/><path fill="#999999" d="M14.595 31.35h6.49v.7q0 .31-.07.5-.06.19-.13.32l-3.56 7.33q-.11.23-.31.39t-.54.16h-1.16l3.63-7.18q.12-.22.24-.41.12-.18.27-.35h-4.49q-.15 0-.26-.11-.11-.11-.11-.26v-1.09Zm10.9 7.9h2.41q.26 0 .41.15.15.15.15.39v.96h-6.44v-.53q0-.17.06-.34.07-.18.22-.33l2.85-2.86q.36-.36.64-.69.29-.33.48-.66.18-.32.29-.66.1-.33.1-.7 0-.34-.1-.6-.1-.25-.28-.43-.18-.18-.43-.26-.25-.09-.56-.09-.28 0-.53.08-.24.08-.43.23-.19.14-.32.34-.13.19-.19.43-.12.3-.29.39-.18.1-.51.05l-.84-.15q.1-.68.37-1.19.28-.51.7-.85.42-.34.97-.51.54-.17 1.16-.17.65 0 1.19.19.54.19.92.54.39.35.6.85.22.49.22 1.09 0 .52-.16.97-.15.44-.41.84-.25.4-.6.78-.34.38-.72.77l-2.12 2.16q.31-.09.61-.14.3-.05.58-.05Zm13.57-.65-.85.84-2.21-2.21-2.22 2.22-.85-.84 2.22-2.23-2.12-2.12.85-.84 2.12 2.12 2.1-2.11.86.85-2.11 2.11 2.21 2.21Zm4.46-7.25h6.5v.7q0 .31-.07.5-.06.19-.13.32l-3.56 7.33q-.11.23-.31.39t-.54.16h-1.16l3.63-7.18q.12-.22.24-.41.12-.18.27-.35h-4.5q-.15 0-.26-.11-.11-.11-.11-.26v-1.09Zm10.9 7.9h2.42q.26 0 .41.15.15.15.15.39v.96h-6.45v-.53q0-.17.07-.34.07-.18.22-.33l2.85-2.86q.36-.36.64-.69.29-.33.47-.66.19-.32.29-.66.1-.33.1-.7 0-.34-.09-.6-.1-.25-.28-.43-.18-.18-.43-.26-.25-.09-.56-.09-.29 0-.53.08-.24.08-.43.23-.19.14-.32.34-.13.19-.2.43-.11.3-.28.39-.18.1-.51.05l-.84-.15q.09-.68.37-1.19.28-.51.7-.85.42-.34.96-.51.55-.17 1.17-.17.65 0 1.19.19.54.19.92.54.39.35.6.85.22.49.22 1.09 0 .52-.16.97-.15.44-.41.84-.25.4-.6.78-.34.38-.72.77l-2.12 2.16q.31-.09.61-.14.3-.05.57-.05Z"/></svg>