<svg xmlns="http://www.w3.org/2000/svg" width="792" height="526" viewBox="0 0 792 526"><rect width="100%" height="100%" fill="#DDDDDD"/><path fill="#999999" d="M161.51 225.045h52.45v5.61q0 2.52-.53 4.07-.52 1.55-1.05 2.6l-28.77 59.22q-.89 1.84-2.52 3.12-1.63 1.29-4.36 1.29h-9.39l29.34-58.01q1-1.79 1.97-3.28.97-1.5 2.18-2.87H164.5q-1.21 0-2.1-.89-.89-.89-.89-2.1v-8.76Zm73.34 22.78q0 6.35 3.28 9.69 3.28 3.33 9.32 3.33 3.15 0 5.62-1 2.47-.99 4.15-2.73 1.68-1.73 2.54-4.09.87-2.36.87-5.09 0-3.1-.95-5.54-.94-2.44-2.67-4.12-1.74-1.68-4.13-2.58-2.38-.89-5.22-.89-2.94 0-5.3.97t-4.04 2.71q-1.68 1.73-2.58 4.12-.89 2.39-.89 5.22Zm-6.35 53.13 23.57-29.45q.89-1.1 1.68-2.16.79-1.05 1.52-2.09-2.62 1.68-5.77 2.54-3.15.87-6.62.87-3.93 0-7.71-1.37-3.78-1.36-6.72-4.12-2.94-2.75-4.76-6.82-1.81-4.07-1.81-9.53 0-5.1 1.89-9.56 1.89-4.46 5.31-7.82 3.41-3.36 8.19-5.3 4.77-1.94 10.55-1.94 5.83 0 10.47 1.83 4.65 1.84 7.93 5.15 3.28 3.3 5.04 7.93 1.76 4.61 1.76 10.13 0 3.51-.61 6.66-.6 3.16-1.7 6.07t-2.68 5.7q-1.57 2.78-3.52 5.51l-17.37 24.78q-.9 1.26-2.68 2.12-1.79.87-4.04.87H228.5Zm81.95-12.07h19.48q2.1 0 3.33 1.18 1.24 1.18 1.24 3.12v7.77h-52.08v-4.3q0-1.32.55-2.76.55-1.44 1.76-2.6l23.04-23.1q2.89-2.94 5.17-5.62 2.29-2.67 3.81-5.3 1.52-2.62 2.34-5.33.81-2.7.81-5.69 0-2.73-.79-4.81-.78-2.07-2.23-3.49-1.44-1.42-3.46-2.13-2.02-.7-4.54-.7-2.31 0-4.28.65-1.97.66-3.49 1.84-1.53 1.18-2.58 2.75-1.05 1.58-1.57 3.47-.89 2.42-2.31 3.2-1.42.79-4.1.37l-6.82-1.21q.79-5.46 3.04-9.58 2.26-4.12 5.65-6.88 3.38-2.75 7.77-4.14 4.38-1.39 9.42-1.39 5.25 0 9.61 1.54 4.36 1.55 7.45 4.39 3.1 2.83 4.83 6.82 1.74 3.99 1.74 8.87 0 4.21-1.24 7.78-1.23 3.57-3.31 6.82-2.07 3.26-4.85 6.3-2.78 3.05-5.83 6.19l-17.11 17.49q2.46-.74 4.9-1.13 2.45-.39 4.65-.39Zm109.62-5.31-6.88 6.77-17.79-17.79-17.96 17.9-6.88-6.77 17.96-18.01-17.12-17.11 6.83-6.83 17.11 17.12 17.01-17.01 6.93 6.82-17.06 17.06 17.85 17.85Zm55.18-46.78-2.68 15.81q2.52-.53 4.83-.76 2.31-.24 4.46-.24 5.99 0 10.56 1.79 4.56 1.78 7.66 4.93 3.1 3.15 4.67 7.38 1.58 4.22 1.58 9.11 0 6.03-2.13 11.02-2.12 4.99-5.9 8.53-3.78 3.55-8.96 5.49-5.17 1.94-11.26 1.94-3.57 0-6.77-.74-3.2-.73-6.01-1.96-2.81-1.24-5.2-2.84-2.39-1.6-4.28-3.38l3.99-5.52q1.26-1.78 3.31-1.78 1.31 0 2.68.84 1.36.84 3.12 1.83 1.76 1 4.15 1.84 2.39.84 5.75.84 3.57 0 6.3-1.15 2.73-1.16 4.54-3.23 1.81-2.07 2.73-4.94.92-2.86.92-6.22 0-6.19-3.6-9.68-3.59-3.49-10.63-3.49-5.41 0-11.08 1.99l-8.08-2.31 6.3-36.85h37.48v5.51q0 2.78-1.73 4.51t-5.88 1.73h-20.84Zm68.93 52.09h19.48q2.1 0 3.33 1.18 1.24 1.18 1.24 3.12v7.77h-52.08v-4.3q0-1.32.55-2.76.55-1.44 1.76-2.6l23.04-23.1q2.89-2.94 5.17-5.62 2.29-2.67 3.81-5.3 1.52-2.62 2.34-5.33.81-2.7.81-5.69 0-2.73-.79-4.81-.78-2.07-2.23-3.49-1.44-1.42-3.46-2.13-2.02-.7-4.54-.7-2.31 0-4.28.65-1.97.66-3.49 1.84-1.53 1.18-2.58 2.75-1.05 1.58-1.57 3.47-.89 2.42-2.31 3.2-1.42.79-4.1.37l-6.82-1.21q.79-5.46 3.04-9.58 2.26-4.12 5.65-6.88 3.38-2.75 7.77-4.14 4.38-1.39 9.42-1.39 5.25 0 9.61 1.54 4.36 1.55 7.45 4.39 3.1 2.83 4.83 6.82 1.74 3.99 1.74 8.87 0 4.21-1.24 7.78-1.23 3.57-3.31 6.82-2.07 3.26-4.85 6.3-2.78 3.05-5.83 6.19l-17.11 17.49q2.46-.74 4.9-1.13 2.45-.39 4.65-.39Zm78.8-63.84-22.52 27.56-2.62 3.25q2.2-1.1 4.75-1.7 2.54-.61 5.48-.61 4.31 0 8.38 1.42 4.07 1.42 7.16 4.28 3.1 2.86 4.99 7.11 1.89 4.26 1.89 9.92 0 5.31-1.94 9.95-1.94 4.65-5.46 8.12-3.52 3.46-8.48 5.45-4.96 2-10.95 2-6.09 0-10.92-1.94t-8.24-5.44q-3.41-3.49-5.22-8.4-1.81-4.9-1.81-10.89 0-5.35 2.17-11 2.18-5.64 6.75-11.73l18.11-24.31q.95-1.26 2.76-2.15 1.81-.89 4.17-.89h11.55Zm-19.58 66.15q3.1 0 5.7-1.05 2.6-1.06 4.46-2.94 1.86-1.89 2.91-4.44 1.05-2.55 1.05-5.54 0-3.25-.99-5.85-1-2.6-2.84-4.41-1.84-1.81-4.41-2.76-2.57-.95-5.67-.95t-5.62 1.06q-2.52 1.05-4.3 2.91-1.79 1.86-2.78 4.41-1 2.55-1 5.48 0 3.16.86 5.75.87 2.6 2.58 4.44 1.7 1.84 4.22 2.86 2.52 1.03 5.83 1.03Z"/></svg>